<?xml version="1.0" ?><svg id="Layer_1" style="enable-background:new 0 0 357.369 357.369;" version="1.1" viewBox="0 0 357.369 357.369" xml:space="preserve" xmlns="http://www.w3.org/2000/svg" xmlns:xlink="http://www.w3.org/1999/xlink"><g id="Fried_x5F_basil"><circle cx="178.685" cy="178.685" id="XMLID_1145_" r="178.685" style="fill:#5962B2;"/><path d="M178.685,342.731c-90.456,0-164.047-73.591-164.047-164.047   S88.229,14.638,178.685,14.638s164.047,73.591,164.047,164.047S269.141,342.731,178.685,342.731z M178.685,17.982   c-88.612,0-160.703,72.091-160.703,160.703s72.091,160.703,160.703,160.703s160.703-72.091,160.703-160.703   S267.297,17.982,178.685,17.982z" id="XMLID_1055_" style="fill:#E8EAE9;"/><path d="M114.103,248.901L114.103,248.901c-30.99-0.662-55.575-26.321-54.913-57.311   l0.329-15.376c1.324-61.979,52.642-111.15,114.621-109.826h0l-2.726,127.6C170.751,224.978,145.092,249.564,114.103,248.901z" id="XMLID_12_" style="fill:#FFEFE1;"/><path d="M195.6,235.623L195.6,235.623c4.174-1.519,8.814,0.525,10.547,4.557l3.842-8.24   c1.945-4.171,6.948-5.992,11.119-4.047h0c4.171,1.945,5.992,6.948,4.047,11.119l-3.775,8.095c4.136-1.113,8.544,1.12,10.034,5.216   v0c1.574,4.324-0.676,9.15-5.001,10.724l-17.297,6.296l-0.145,0.053c-1.687,0.611-3.061,1.868-3.82,3.495l-3.915,8.395l-8.257-3.85   l3.673-7.876c0.863-1.851,0.954-3.97,0.252-5.888l-0.01-0.027l-6.296-17.297C189.026,242.023,191.276,237.197,195.6,235.623z" id="XMLID_480_" style="fill:#0DA386;"/><line id="XMLID_479_" style="fill:none;stroke:#347453;stroke-width:2.1758;stroke-miterlimit:10;" x1="197.538" x2="217.308" y1="279.622" y2="237.226"/><polyline id="XMLID_477_" points="   198.708,242.224 205.591,262.455 225.513,254.723  " style="fill:none;stroke:#347453;stroke-width:2.4498;stroke-linecap:round;stroke-miterlimit:10;"/><path d="M247.247,200.834c-5.164,0-10.184-2.688-12.938-7.487   c-4.097-7.138-1.632-16.246,5.507-20.343c7.508-4.31,10.11-13.923,5.801-21.431c-4.096-7.139-1.63-16.247,5.508-20.344   c7.136-4.095,16.245-1.631,20.344,5.508c12.488,21.762,4.944,49.627-16.816,62.116   C252.314,200.195,249.763,200.834,247.247,200.834z" id="XMLID_475_" style="fill:#ED927B;"/><path d="M202.208,296.083c-1.864,0-3.76-0.352-5.593-1.095   c-7.628-3.092-11.305-11.782-8.214-19.409c9.425-23.253,36.006-34.505,59.264-25.081c7.628,3.092,11.305,11.781,8.214,19.409   c-3.093,7.628-11.782,11.304-19.409,8.214c-8.021-3.251-17.193,0.63-20.445,8.653C213.676,292.568,208.097,296.083,202.208,296.083   z" id="XMLID_393_" style="fill:#ED927B;"/><path d="M277.723,246.583c-6.565,0-12.578-4.371-14.376-11.013   c-6.556-24.218,7.813-49.256,32.031-55.813c7.945-2.148,16.128,2.546,18.279,10.49s-2.546,16.128-10.49,18.279   c-8.355,2.262-13.312,10.9-11.051,19.257c2.15,7.944-2.546,16.128-10.491,18.278C280.322,246.414,279.011,246.583,277.723,246.583z   " id="XMLID_339_" style="fill:#ED927B;"/><path d="M298.215,194.283L298.215,194.283c-4.174-1.519-8.814,0.525-10.547,4.557   l-3.842-8.24c-1.945-4.171-6.948-5.992-11.119-4.047l0,0c-4.171,1.945-5.992,6.948-4.047,11.119l3.775,8.095   c-4.136-1.113-8.544,1.12-10.034,5.216v0c-1.574,4.324,0.676,9.15,5.001,10.724l17.297,6.296l0.145,0.053   c1.687,0.611,3.061,1.868,3.82,3.495l3.915,8.395l8.257-3.85l-3.673-7.877c-0.863-1.851-0.954-3.97-0.252-5.888l0.01-0.027   l6.296-17.297C304.79,200.683,302.539,195.857,298.215,194.283z" id="XMLID_96_" style="fill:#49BF7C;"/><path d="M274.281,99.636L274.281,99.636c-4.174-1.519-8.814,0.525-10.547,4.557l-3.842-8.24   c-1.945-4.171-6.948-5.992-11.119-4.047l0,0c-4.171,1.945-5.992,6.948-4.047,11.119l3.775,8.095   c-4.136-1.113-8.544,1.12-10.034,5.216v0c-1.574,4.324,0.676,9.15,5.001,10.724l17.297,6.296l0.145,0.053   c1.687,0.611,3.061,1.868,3.82,3.495l3.915,8.395l8.257-3.85l-3.673-7.877c-0.863-1.851-0.954-3.97-0.252-5.888l0.01-0.027   l6.296-17.297C280.856,106.036,278.606,101.21,274.281,99.636z" id="XMLID_489_" style="fill:#49BF7C;"/><rect height="30.169" id="XMLID_723_" style="fill:#A57850;" transform="matrix(0.766 -0.6428 0.6428 0.766 -90.9598 220.7484)" width="12.802" x="251.37" y="220.245"/><rect height="30.169" id="XMLID_827_" style="fill:#A57850;" transform="matrix(-0.766 -0.6428 0.6428 -0.766 389.3277 467.7332)" width="12.802" x="273.384" y="147.93"/><path d="M254.031,235.706c-6.361,0.439-10.958,6.34-9.731,12.597   c0.389,1.983,0.659,4.013,0.801,6.076c1.379,19.962-9.56,37.928-26.334,46.467c0.699-0.018,1.4-0.048,2.104-0.097   c26.657-1.841,46.774-24.943,44.933-51.6c-0.107-1.548-0.286-3.073-0.533-4.573C264.381,239.164,259.502,235.328,254.031,235.706   L254.031,235.706z" id="XMLID_806_" style="fill:#EF5B62;"/><path d="M191.755,138.144c-22.213,0-40.284-18.071-40.284-40.284   s18.071-40.284,40.284-40.284s40.284,18.071,40.284,40.284S213.968,138.144,191.755,138.144z" id="XMLID_919_" style="fill:#378F5D;"/><circle cx="191.755" cy="97.86" id="XMLID_849_" r="37.021" style="fill:#E1F2A2;"/><path d="M149.327,144.671c-22.213,0-40.284-18.071-40.284-40.284   s18.071-40.284,40.284-40.284s40.284,18.071,40.284,40.284S171.54,144.671,149.327,144.671z" id="XMLID_926_" style="fill:#378F5D;"/><circle cx="149.327" cy="104.387" id="XMLID_925_" r="37.021" style="fill:#E1F2A2;"/><circle cx="178.685" cy="178.918" id="XMLID_190_" r="83.214" style="fill:#FFF8F5;"/><circle cx="178.685" cy="178.918" id="XMLID_267_" r="38.585" style="fill:#F48F4A;"/><path d="M178.685,211.941c-1.706,0-3.09-1.384-3.09-3.09s1.384-3.09,3.09-3.09   c14.803,0,26.845-12.042,26.845-26.845c0-1.706,1.384-3.09,3.09-3.09s3.09,1.384,3.09,3.09   C211.709,197.127,196.895,211.941,178.685,211.941z" id="XMLID_1153_" style="fill:#FFDE76;"/><path d="M195.6,235.623L195.6,235.623c4.174-1.519,8.814,0.525,10.547,4.557l3.842-8.24   c1.945-4.171,6.948-5.992,11.119-4.047h0c4.171,1.945,5.992,6.948,4.047,11.119l-3.775,8.095c4.136-1.113,8.544,1.12,10.034,5.216   v0c1.574,4.324-0.676,9.15-5.001,10.724l-17.297,6.296l-0.145,0.053c-1.687,0.611-3.061,1.868-3.82,3.495l-3.915,8.395l-8.257-3.85   l3.673-7.876c0.863-1.851,0.954-3.97,0.252-5.888l-0.01-0.027l-6.296-17.297C189.026,242.023,191.276,237.197,195.6,235.623z" id="XMLID_476_" style="fill:#49BF7C;"/><path d="M297.264,237.822l-7.764-16.651l6.766-19.893c0.219-0.641-0.124-1.336-0.765-1.554   c-0.642-0.22-1.336,0.124-1.554,0.765l-5.944,17.474l-10.509-22.537l-1.973,0.92l10.547,22.619l-17.323-6.723   c-0.629-0.244-1.341,0.068-1.585,0.698c-0.245,0.631,0.067,1.341,0.698,1.585l19.707,7.649l7.726,16.569L297.264,237.822z" id="XMLID_965_" style="fill:#347453;"/><path d="M271.357,144.096l1.973-0.92l-7.764-16.651l6.766-19.893   c0.219-0.641-0.124-1.336-0.765-1.554c-0.641-0.223-1.337,0.124-1.554,0.765l-5.944,17.473l-10.509-22.538l-1.973,0.92   l10.547,22.62l-17.324-6.723c-0.628-0.244-1.341,0.068-1.585,0.698c-0.245,0.631,0.067,1.341,0.698,1.585l19.707,7.649   L271.357,144.096z" id="XMLID_967_" style="fill:#347453;"/><path d="M225.069,253.581l-17.323,6.723l10.547-22.619l-1.973-0.92l-10.509,22.537   l-5.945-17.474c-0.218-0.641-0.915-0.984-1.554-0.765c-0.641,0.218-0.983,0.913-0.765,1.554l6.767,19.893l-7.764,16.651l1.973,0.92   l7.726-16.569l19.706-7.649c0.631-0.244,0.943-0.954,0.698-1.585C226.411,253.65,225.7,253.338,225.069,253.581z" id="XMLID_970_" style="fill:#347453;"/></g><g/><g/><g/><g/><g/><g/><g/><g/><g/><g/><g/><g/><g/><g/><g/></svg>